<?xml version="1.0" encoding="utf-8"?>
<!-- Generator: Adobe Illustrator 27.0.0, SVG Export Plug-In . SVG Version: 6.00 Build 0)  -->
<svg version="1.1" id="レイヤー_1" xmlns="http://www.w3.org/2000/svg" xmlns:xlink="http://www.w3.org/1999/xlink" x="0px"
	 y="0px" viewBox="0 0 505.1 427.2" style="enable-background:new 0 0 505.1 427.2;" xml:space="preserve">
<g>
	<path d="M270.1,405.2h-16.6v22.1h38.6v-38.6h-22V405.2z"/>
	<path d="M81.6,405.2h43v22.1h-43V405.2z"/>
	<path d="M167.6,405.2h43v22.1h-43V405.2z"/>
	<path d="M22.1,388.6H0v38.6h38.6v-22.1H22.1L22.1,388.6z"/>
	<path d="M0,302.6h22.1v43H0V302.6z"/>
	<path d="M0,216.7h22.1v43H0V216.7z"/>
	<path d="M0,173.7h22.1v-16.5h16.5v-22.1H0L0,173.7z"/>
	<path d="M81.6,135.1h43v22.1h-43V135.1z"/>
	<path d="M270.1,302.6h22.1v43h-22.1V302.6z"/>
	<path d="M213.4,123.4c24.7,0,44.8-20.1,44.8-44.8c0-24.7-20.1-44.8-44.8-44.8c-24.7,0-44.8,20.1-44.8,44.8
		C168.6,103.3,188.7,123.4,213.4,123.4z M213.4,55.8c12.5,0,22.7,10.2,22.7,22.7s-10.2,22.7-22.7,22.7c-12.5,0-22.7-10.2-22.7-22.7
		C190.7,66,200.9,55.8,213.4,55.8z"/>
	<path d="M505.1,244.1l-77.8-20.8l0-223.2H135.1v292.2h223.2l20.8,77.8l40.6-40.6l34.8,34.8l44.8-44.8l-34.8-34.8L505.1,244.1z
		 M405.2,22.1v195.2l-15.5-4.1L309.6,74.4l-67.6,117l-28.2-48.8l-56.7,98.3V22.1L405.2,22.1z M165.7,270.1l48.2-83.5l28.2,48.8
		l67.5-117l50,86.6L333,198l19.3,72.1L165.7,270.1z M468.1,319.4L454.5,333l-34.8-34.8l-29.1,29.1l-26.3-98.2l98.2,26.3l-29.2,29.1
		L468.1,319.4z"/>
</g>
</svg>
